<svg viewBox="0 0 156 128" xml:space="preserve" xmlns="http://www.w3.org/2000/svg" xmlns:xlink="http://www.w3.org/1999/xlink" enable-background="new 0 0 156 128"><path d="M14 30c0-3.3 2.7-6 6-6h116c3.3 0 6 2.7 6 6v68c0 3.3-2.7 6-6 6H20c-3.3 0-6-2.7-6-6V30z" fill="#392f83" class="fill-000000"></path><defs><path d="M14 30c0-3.3 2.7-6 6-6h116c3.3 0 6 2.7 6 6v68c0 3.3-2.7 6-6 6H20c-3.3 0-6-2.7-6-6V30z" id="a"></path></defs><clipPath id="b"><use xlink:href="#a" overflow="visible"></use></clipPath><path d="M14 30c0-3.3 2.7-6 6-6h116c3.3 0 6 2.7 6 6v68c0 3.3-2.7 6-6 6H20c-3.3 0-6-2.7-6-6V30z" clip-path="url(#b)" stroke="#392f83" stroke-width="2" stroke-miterlimit="10" fill="#392f83" class="fill-000000 stroke-000000"></path><defs><path d="M55.3 91.8V88c0-1.4-.8-2.3-2.3-2.4-.8 0-1.5.2-2.1 1.1-.4-.7-1.1-1.1-2-1.1-.6 0-1.3.2-1.8.9v-.7h-1.2v6h1.2v-3.4c0-1 .6-1.6 1.5-1.6s1.3.6 1.3 1.6v3.4h1.2v-3.4c0-1 .6-1.6 1.5-1.6s1.4.6 1.4 1.6v3.4h1.3zm19.4-6h-2.2V84h-1.2v1.8H70v1.1h1.3v2.8c0 1.4.5 2.2 2 2.2.6 0 1.2-.2 1.6-.5l-.4-1.1c-.4.2-.8.3-1.1.3-.6 0-.9-.4-.9-1v-2.8h2.2v-1zm11.1-.1c-.7 0-1.3.3-1.6.9v-.7H83v6h1.2v-3.4c0-1 .5-1.6 1.3-1.6.3 0 .5 0 .8.2l.4-1.1c-.3-.3-.7-.3-.9-.3zm-16.8.6c-.6-.4-1.5-.6-2.4-.6-1.5 0-2.4.7-2.4 1.9 0 1 .7 1.6 2 1.7l.6.1c.7.1 1.1.3 1.1.7 0 .5-.5.8-1.4.8s-1.5-.3-2-.6l-.6.9c.9.6 1.9.8 2.6.8 1.7 0 2.7-.8 2.7-1.9 0-1-.7-1.6-2-1.8l-.6-.1c-.6-.1-1.1-.2-1.1-.6s.5-.7 1.2-.7c.8 0 1.5.3 1.9.5l.4-1.1zm18.1 2.5c0 1.8 1.2 3.1 3.1 3.1.9 0 1.5-.2 2.1-.7l-.6-.9c-.5.3-1 .5-1.6.5-1 0-1.8-.8-1.8-2s.8-2 1.8-2c.6 0 1.1.2 1.6.5l.6-.9c-.6-.5-1.2-.7-2.1-.7-1.9 0-3.1 1.3-3.1 3.1zm-8.4-3.1c-1.7 0-2.9 1.3-2.9 3.1 0 1.9 1.2 3.1 3 3.1.9 0 1.7-.2 2.4-.8l-.6-.9c-.5.4-1.1.6-1.7.6-.8 0-1.7-.5-1.8-1.5h4.5v-.5c-.1-1.9-1.2-3.1-2.9-3.1zm0 1.1c.9 0 1.5.6 1.6 1.5h-3.2c.1-.9.7-1.5 1.6-1.5zm-16.1 2v-3h-1.2v.7c-.4-.5-1.1-.9-1.9-.9-1.7 0-2.9 1.3-2.9 3.1s1.3 3.1 2.9 3.1c.8 0 1.5-.3 1.9-.9v.7h1.2v-2.8zm-4.9 0c0-1.1.7-2 1.9-2 1.1 0 1.8.9 1.8 2 0 1.2-.7 2-1.8 2s-1.9-.9-1.9-2zm46.1-3.1c-.7 0-1.3.3-1.6.9v-.7H101v6h1.2v-3.4c0-1 .5-1.6 1.3-1.6.3 0 .5 0 .8.2l.4-1.1c-.3-.3-.7-.3-.9-.3zm9.6 5.2h.2c.1 0 .1.1.2.1.1.1.1.1.1.2v.4c0 .1-.1.1-.1.2-.1.1-.1.1-.2.1h-.4c-.1 0-.1-.1-.2-.1-.1-.1-.1-.1-.1-.2v-.4c0-.1.1-.1.1-.2.1-.1.1-.1.2-.1h.2zm0 1.1h.2c.1 0 .1-.1.1-.1l.1-.1v-.4c0-.1-.1-.1-.1-.1l-.1-.1h-.4c-.1 0-.1.1-.1.1l-.1.1v.4c0 .1.1.1.1.1l.1.1h.2zm0-.8h.2l.1.1v.1s-.1 0-.1.1l.2.2h-.1l-.2-.2h-.1v.2h-.1v-.6h.1v.1zm-.1.1.2.1v-.2l-.2.1zm-14.1-2.5v-3H98v.7c-.4-.5-1.1-.9-1.9-.9-1.7 0-2.9 1.3-2.9 3.1s1.3 3.1 2.9 3.1c.8 0 1.5-.3 1.9-.9v.7h1.2v-2.8zm-4.8 0c0-1.1.7-2 1.9-2 1.1 0 1.8.9 1.8 2 0 1.2-.7 2-1.8 2-1.2 0-1.9-.9-1.9-2zm16.8 0v-5.4H110v3.1c-.4-.5-1.1-.9-1.9-.9-1.7 0-2.9 1.3-2.9 3.1s1.3 3.1 2.9 3.1c.8 0 1.5-.3 1.9-.9v.7h1.2v-2.8zm-4.8 0c0-1.1.7-2 1.9-2 1.1 0 1.8.9 1.8 2 0 1.2-.7 2-1.8 2-1.2 0-1.9-.9-1.9-2z" id="c"></path></defs><clipPath id="d"><use xlink:href="#c" overflow="visible"></use></clipPath><path d="M40.9 78.4H119v18.7H40.9z" clip-path="url(#d)" fill="#ffffff" class="fill-ffffff"></path><defs><path id="e" d="M67.6 40.5h21.6v35.3H67.6z"></path></defs><clipPath id="f"><use xlink:href="#e" overflow="visible"></use></clipPath><path d="M62.6 35.5h31.6v45.3H62.6z" clip-path="url(#f)" fill="#ff5f00" class="fill-ff5f00"></path><defs><path d="M69.9 58.1c0-7.2 3.4-13.5 8.6-17.6-3.8-3-8.6-4.8-13.9-4.8-12.4 0-22.4 10-22.4 22.4s10 22.4 22.4 22.4c5.2 0 10-1.8 13.9-4.8-5.3-4.1-8.6-10.5-8.6-17.6" id="g"></path></defs><clipPath id="h"><use xlink:href="#g" overflow="visible"></use></clipPath><path d="M37.1 30.7h46.3v54.9H37.1z" clip-path="url(#h)" fill="#eb001b" class="fill-eb001b"></path><defs><path d="M112.6 72v-.7h.3v-.1h-.7v.1h.3l.1.7zm1.4 0v-.9h-.2l-.3.6-.3-.6h-.2v.9h.2v-.7l.2.6h.2l.2-.6v.7h.2z" id="i"></path></defs><clipPath id="j"><use xlink:href="#i" overflow="visible"></use></clipPath><path d="M107.1 66.1H119V77h-11.9z" clip-path="url(#j)" fill="#f79e1b" class="fill-f79e1b"></path><defs><path d="M114.7 58.1c0 12.4-10 22.4-22.4 22.4-5.2 0-10-1.8-13.9-4.8 5.2-4.1 8.6-10.5 8.6-17.6 0-7.2-3.4-13.5-8.6-17.6 3.8-3 8.6-4.8 13.9-4.8 12.4 0 22.4 10 22.4 22.4" id="k"></path></defs><clipPath id="l"><use xlink:href="#k" overflow="visible"></use></clipPath><path d="M73.4 30.7h46.3v54.9H73.4z" clip-path="url(#l)" fill="#f79e1b" class="fill-f79e1b"></path></svg>