<?xml version="1.0" ?><svg id="Layer_1" style="enable-background:new 0 0 512 512;" version="1.1" viewBox="0 0 512 512" xml:space="preserve" xmlns="http://www.w3.org/2000/svg" xmlns:xlink="http://www.w3.org/1999/xlink"><style type="text/css">
	.st0{fill-rule:evenodd;clip-rule:evenodd;fill:#DFDFE0;}
	.st1{fill:#253D80;}
	.st2{fill:#189BD7;}
	.st3{fill:#242F65;}
</style><g><path class="st0" d="M489.2,94.5H21.9c-9.1,0-14.8,1.4-17.9,4.3c-2.7,3.3-4,8.7-4,16.7v29.9v24.1v172.3V367v28.8   c0,14.3,7.4,21.7,21.9,21.7h467.3c15.2,0,22.8-7.4,22.8-21.7V367v-25.2V169.4v-24.1v-29.9C512,101.3,504.4,94.5,489.2,94.5z"/><g><path class="st1" d="M214.2,250.5c-1.1,6.9-6.4,6.9-11.5,6.9h-2.9l2-13c0.1-0.8,0.8-1.4,1.6-1.4h1.3c3.5,0,6.8,0,8.5,2    C214.3,246.3,214.6,248.1,214.2,250.5 M212,232.4h-19.3c-1.3,0-2.4,1-2.7,2.3l-7.8,49.6c-0.2,1,0.6,1.9,1.6,1.9h9.2    c1.3,0,2.4-1,2.7-2.3l2.1-13.4c0.2-1.3,1.3-2.3,2.7-2.3h6.1c12.7,0,20.1-6.2,22-18.4c0.9-5.3,0-9.5-2.5-12.5    C223.3,234.1,218.4,232.4,212,232.4"/><path class="st1" d="M256.8,268.3c-0.9,5.3-5.1,8.8-10.4,8.8c-2.7,0-4.8-0.9-6.2-2.5c-1.4-1.6-1.9-3.9-1.5-6.5    c0.8-5.2,5.1-8.9,10.4-8.9c2.6,0,4.8,0.9,6.2,2.5C256.7,263.4,257.2,265.8,256.8,268.3 M269.7,250.3h-9.3c-0.8,0-1.5,0.6-1.6,1.4    l-0.4,2.6l-0.6-0.9c-2-2.9-6.5-3.9-10.9-3.9c-10.2,0-19,7.7-20.7,18.6c-0.9,5.4,0.4,10.6,3.4,14.2c2.8,3.3,6.9,4.7,11.7,4.7    c8.2,0,12.8-5.3,12.8-5.3l-0.4,2.6c-0.2,1,0.6,1.9,1.6,1.9h8.3c1.3,0,2.4-1,2.7-2.3l5-31.7C271.5,251.2,270.7,250.3,269.7,250.3"/><path class="st1" d="M319,250.3h-9.3c-0.9,0-1.7,0.4-2.2,1.2l-12.8,18.9l-5.4-18.2c-0.3-1.1-1.4-1.9-2.6-1.9h-9.1    c-1.1,0-1.9,1.1-1.5,2.1l10.2,30.1l-9.6,13.6c-0.8,1.1,0,2.5,1.3,2.5h9.3c0.9,0,1.7-0.4,2.2-1.2l30.9-44.7    C321.1,251.8,320.3,250.3,319,250.3"/><path class="st2" d="M352.1,250.5c-1.1,6.9-6.4,6.9-11.5,6.9h-2.9l2.1-13c0.1-0.8,0.8-1.4,1.6-1.4h1.3c3.5,0,6.8,0,8.5,2    C352.1,246.3,352.4,248.1,352.1,250.5 M349.8,232.4h-19.3c-1.3,0-2.4,1-2.6,2.3l-7.8,49.6c-0.2,1,0.6,1.9,1.6,1.9h9.9    c0.9,0,1.7-0.7,1.9-1.6l2.2-14c0.2-1.3,1.3-2.3,2.7-2.3h6.1c12.7,0,20.1-6.2,22-18.4c0.9-5.3,0-9.5-2.5-12.5    C361.2,234.1,356.3,232.4,349.8,232.4"/><path class="st2" d="M394.7,268.3c-0.9,5.3-5.1,8.8-10.4,8.8c-2.7,0-4.8-0.9-6.2-2.5c-1.4-1.6-1.9-3.9-1.5-6.5    c0.8-5.2,5.1-8.9,10.4-8.9c2.6,0,4.8,0.9,6.2,2.5C394.5,263.4,395.1,265.8,394.7,268.3 M407.6,250.3h-9.2c-0.8,0-1.5,0.6-1.6,1.4    l-0.4,2.6l-0.7-0.9c-2-2.9-6.5-3.9-10.9-3.9c-10.2,0-19,7.7-20.7,18.6c-0.9,5.4,0.4,10.6,3.4,14.2c2.8,3.3,6.9,4.7,11.7,4.7    c8.2,0,12.8-5.3,12.8-5.3l-0.4,2.6c-0.2,1,0.6,1.9,1.6,1.9h8.3c1.3,0,2.4-1,2.6-2.3l5-31.7C409.3,251.2,408.6,250.3,407.6,250.3"/><path class="st2" d="M418.5,233.8l-7.9,50.5c-0.2,1,0.6,1.9,1.6,1.9h8c1.3,0,2.4-1,2.7-2.3l7.8-49.6c0.2-1-0.6-1.9-1.6-1.9h-8.9    C419.3,232.4,418.6,233,418.5,233.8"/><path class="st1" d="M101.9,295.7l1.5-9.4l-3.3-0.1H84.4L95.3,217c0-0.2,0.1-0.4,0.3-0.5c0.2-0.1,0.4-0.2,0.6-0.2h26.5    c8.8,0,14.9,1.8,18,5.4c1.5,1.7,2.4,3.5,2.9,5.4c0.5,2,0.5,4.5,0,7.5l0,0.2v1.9l1.5,0.8c1.3,0.7,2.2,1.4,3,2.3    c1.3,1.5,2.1,3.3,2.4,5.5c0.4,2.2,0.2,4.9-0.3,7.9c-0.7,3.5-1.8,6.5-3.3,9c-1.4,2.3-3.1,4.2-5.2,5.7c-2,1.4-4.3,2.5-6.9,3.1    c-2.6,0.7-5.5,1-8.7,1h-2.1c-1.5,0-2.9,0.5-4,1.5c-1.1,1-1.9,2.3-2.1,3.8l-0.2,0.8l-2.6,16.5l-0.1,0.6c0,0.2-0.1,0.3-0.2,0.4    c-0.1,0.1-0.2,0.1-0.3,0.1H101.9z"/><path class="st2" d="M146.5,235c-0.1,0.5-0.2,1-0.3,1.6c-3.5,17.9-15.5,24.1-30.7,24.1h-7.8c-1.9,0-3.4,1.4-3.7,3.2l-4,25.3    l-1.1,7.2c-0.2,1.2,0.7,2.3,2,2.3h13.8c1.6,0,3-1.2,3.3-2.8l0.1-0.7l2.6-16.5l0.2-0.9c0.3-1.6,1.6-2.8,3.3-2.8h2.1    c13.4,0,23.8-5.4,26.9-21.1c1.3-6.6,0.6-12-2.8-15.9C149.3,236.8,148,235.8,146.5,235"/><path class="st3" d="M142.8,233.6c-0.5-0.2-1.1-0.3-1.7-0.4c-0.6-0.1-1.2-0.2-1.7-0.3c-2.1-0.3-4.4-0.5-6.9-0.5h-20.8    c-0.5,0-1,0.1-1.4,0.3c-1,0.5-1.7,1.4-1.8,2.5l-4.4,28l-0.1,0.8c0.3-1.8,1.9-3.2,3.7-3.2h7.8c15.3,0,27.2-6.2,30.7-24.1    c0.1-0.5,0.2-1,0.3-1.6c-0.9-0.5-1.8-0.9-2.9-1.2C143.4,233.7,143.1,233.6,142.8,233.6"/><path class="st1" d="M108.5,235.1c0.2-1.1,0.9-2,1.8-2.5c0.4-0.2,0.9-0.3,1.4-0.3h20.8c2.5,0,4.8,0.2,6.9,0.5    c0.6,0.1,1.2,0.2,1.7,0.3c0.6,0.1,1.1,0.3,1.7,0.4c0.3,0.1,0.5,0.2,0.8,0.2c1,0.3,2,0.7,2.9,1.2c1-6.6,0-11.1-3.6-15.2    c-4-4.5-11.1-6.4-20.2-6.4H96.2c-1.9,0-3.5,1.4-3.7,3.2l-11,70c-0.2,1.4,0.8,2.6,2.2,2.6H100l4.1-26.1L108.5,235.1z"/></g></g></svg>